<?xml version="1.0" encoding="UTF-8"?>
<svg xmlns="http://www.w3.org/2000/svg" id="Layer_1" data-name="Layer 1" viewBox="0 0 75 75">
  <defs>
    <style>.cls-1{fill:#1292ff;}</style>
  </defs>
  <g id="np_planning_2061390_000000" data-name="np planning 2061390 000000">
    <path id="Path_46" data-name="Path 46" class="cls-1" d="M28.62,6.57A16.21,16.21,0,0,0,6.11,29.88a12.7,12.7,0,0,1,3.48,7.31H7.38v2.32H9.7V43a1.15,1.15,0,0,0,1.15,1.16h1.28a5.81,5.81,0,0,0,4.52,4.52v2.43H19V48.66a5.81,5.81,0,0,0,4.52-4.52h1.28A1.16,1.16,0,0,0,25.91,43h0V39.51h2.32V37.19H26a13.26,13.26,0,0,1,3.6-7.43,16.2,16.2,0,0,0-.67-22.9ZM17.81,46.46a3.48,3.48,0,0,1-3.27-2.32h6.53A3.48,3.48,0,0,1,17.81,46.46Zm5.79-4.64H12V39.51H23.6Zm4.32-13.65a15.5,15.5,0,0,0-4.25,9H19V30.24h2.32V27.92H19V25.5a7,7,0,1,0-2.31,0v2.42H14.33v2.32h2.32v7H11.93a15,15,0,0,0-4.15-8.92,13.9,13.9,0,1,1,20.14-.1ZM17.81,23.29a4.64,4.64,0,1,1,4.63-4.64h0A4.64,4.64,0,0,1,17.81,23.29Z"></path>
    <path id="Path_47" data-name="Path 47" class="cls-1" d="M60.67,42.21V41.14l2-2a1.15,1.15,0,0,0,.34-.82v-7a1.16,1.16,0,0,0-2-.82L57.2,34.39l-3.82-3.81a1.15,1.15,0,0,0-1.64,0,1.13,1.13,0,0,0-.34.82v7a1.15,1.15,0,0,0,.34.82l2,2v1.07a16.21,16.21,0,1,0,7,0ZM56,43.46l.34.34a1.15,1.15,0,0,0,1.63,0l.34-.34V56.89a1.16,1.16,0,0,1-2.31,0Zm1.16,16.9a3.47,3.47,0,0,0,3.47-3.47V49.45a9.27,9.27,0,1,1-7,0v7.43a3.48,3.48,0,0,0,3.48,3.48ZM53.72,34.2l2.66,2.65a1.15,1.15,0,0,0,1.63,0l2.66-2.65v3.67l-3.48,3.48-3.47-3.48ZM57.2,72a13.9,13.9,0,0,1-3.48-27.37V47a11.6,11.6,0,1,0,7,0V44.59A13.9,13.9,0,0,1,57.19,72Z"></path>
    <path id="Path_48" data-name="Path 48" class="cls-1" d="M56,27.92h2.31v2.32H56Z"></path>
    <path id="Path_49" data-name="Path 49" class="cls-1" d="M56,23.29h2.31v2.32H56Z"></path>
    <path id="Path_50" data-name="Path 50" class="cls-1" d="M56,18.66h2.31V21H56Z"></path>
    <path id="Path_51" data-name="Path 51" class="cls-1" d="M56,14h2.31v2.32H56Z"></path>
    <path id="Path_52" data-name="Path 52" class="cls-1" d="M55.9,11.91l2.29-.41a10.81,10.81,0,0,0-.81-2.59l-2.11,1a8.47,8.47,0,0,1,.63,2Z"></path>
    <path id="Path_53" data-name="Path 53" class="cls-1" d="M54,7.82l1.77-1.5A10.86,10.86,0,0,0,53.18,4.1L52,6.07A8.66,8.66,0,0,1,54,7.82Z"></path>
    <path id="Path_54" data-name="Path 54" class="cls-1" d="M50.59,2.92A10.83,10.83,0,0,0,48,2.46l-.14,2.31a9,9,0,0,1,2,.36Z"></path>
    <path id="Path_55" data-name="Path 55" class="cls-1" d="M45.81,4.89l-.4-2.29a10.54,10.54,0,0,0-2.59.81l1,2.1a9.1,9.1,0,0,1,2-.63Z"></path>
    <path id="Path_56" data-name="Path 56" class="cls-1" d="M40.22,5.05A11.26,11.26,0,0,0,38,7.61l2,1.23a8.9,8.9,0,0,1,1.75-2Z"></path>
    <path id="Path_57" data-name="Path 57" class="cls-1" d="M36.36,12.8l2.31.13a8.92,8.92,0,0,1,.37-2l-2.22-.68a11.55,11.55,0,0,0-.46,2.59Z"></path>
    <path id="Path_58" data-name="Path 58" class="cls-1" d="M36.34,15.18h2.32V17.5H36.34Z"></path>
    <path id="Path_59" data-name="Path 59" class="cls-1" d="M36.34,19.81h2.32v2.32H36.34Z"></path>
    <path id="Path_60" data-name="Path 60" class="cls-1" d="M36.34,24.45h2.32v2.31H36.34Z"></path>
    <path id="Path_61" data-name="Path 61" class="cls-1" d="M36.34,29.08h2.32V31.4H36.34Z"></path>
    <path id="Path_62" data-name="Path 62" class="cls-1" d="M36.34,33.72h2.32V36H36.34Z"></path>
    <path id="Path_63" data-name="Path 63" class="cls-1" d="M36.34,38.35h2.32v2.32H36.34Z"></path>
    <path id="Path_64" data-name="Path 64" class="cls-1" d="M36.34,43h2.32V45.3H36.34Z"></path>
    <path id="Path_65" data-name="Path 65" class="cls-1" d="M36.34,47.62h2.32v2.31H36.34Z"></path>
    <path id="Path_66" data-name="Path 66" class="cls-1" d="M36.34,52.25h2.32v2.32H36.34Z"></path>
    <path id="Path_67" data-name="Path 67" class="cls-1" d="M36.34,56.89h2.32V59.2H36.34Z"></path>
    <path id="Path_68" data-name="Path 68" class="cls-1" d="M36.34,63.26c0,.17,0,.34,0,.51l2.31.13c0-.21,0-.43,0-.64V61.52H36.34Z"></path>
    <path id="Path_69" data-name="Path 69" class="cls-1" d="M35,67.86l2,1.22a11,11,0,0,0,1.19-2.58L36,65.81a9,9,0,0,1-.93,2Z"></path>
    <path id="Path_70" data-name="Path 70" class="cls-1" d="M31.23,71.18l1,2.11a11.07,11.07,0,0,0,2.56-1.62l-1.5-1.77A8.52,8.52,0,0,1,31.23,71.18Z"></path>
    <path id="Path_71" data-name="Path 71" class="cls-1" d="M27.14,71.93,27,74.24c.21,0,.43,0,.64,0a11.47,11.47,0,0,0,1.94-.17l-.4-2.28A8.8,8.8,0,0,1,27.14,71.93Z"></path>
    <path id="Path_72" data-name="Path 72" class="cls-1" d="M21.83,72.59a11,11,0,0,0,2.58,1.19l.69-2.22a8.61,8.61,0,0,1-2.05-.93Z"></path>
    <path id="Path_73" data-name="Path 73" class="cls-1" d="M17.62,67.79a11.07,11.07,0,0,0,1.62,2.56L21,68.86a8.79,8.79,0,0,1-1.28-2Z"></path>
    <path id="Path_74" data-name="Path 74" class="cls-1" d="M19,63.26v-.58H16.65v.58a10.52,10.52,0,0,0,.17,1.94l2.28-.41A8.71,8.71,0,0,1,19,63.26Z"></path>
    <path id="Path_75" data-name="Path 75" class="cls-1" d="M16.65,58H19v2.32H16.65Z"></path>
    <path id="Path_76" data-name="Path 76" class="cls-1" d="M16.65,53.41H19v2.32H16.65Z"></path>
  </g>
</svg>
